<?xml version="1.0" standalone="no"?><!DOCTYPE svg PUBLIC "-//W3C//DTD SVG 1.1//EN" "http://www.w3.org/Graphics/SVG/1.1/DTD/svg11.dtd"><svg t="1574179027493" class="icon" viewBox="0 0 1024 1024" version="1.1" xmlns="http://www.w3.org/2000/svg" p-id="4064" xmlns:xlink="http://www.w3.org/1999/xlink" width="108" height="108"><defs><style type="text/css"></style></defs><path d="M518.1 446.8c0 16.8 25.2 28 44.1 16.8l226.9-162.2c25.2-16.8 25.2-50.3 0-67.1L562.2 72c-18.9-16.8-44.1-5.6-44.1 16.8v67.1c-81.9 0-384.5 33.6-453.9 430.7 19-0.1 195.3 0.4 209.3 0.6C322.8 428 385.7 379.6 518.1 379.6v67.2z m-11.6 129.9c0-16.8-25.2-28-44.1-16.8l-227 162.2c-25.2 16.8-25.2 50.3 0 67.1l226.9 162.2c18.9 16.8 44.1 5.6 44.1-16.8v-67.1c81.9 0 384.5-33.6 453.9-430.7-19 0.1-195.3-0.4-209.3-0.6-49.3 159.2-112.2 207.6-244.6 207.6v-67.1h0.1z" p-id="4065" fill="#ffffff"></path></svg>